<mxfile host="app.diagrams.net" agent="Mozilla/5.0 (Windows NT 10.0; Win64; x64; rv:132.0) Gecko/20100101 Firefox/132.0" version="24.9.3">
  <diagram name="Side-1" id="q0ZUMYnR-T5BMUQJpofd">
    <mxGraphModel dx="414" dy="721" grid="1" gridSize="10" guides="1" tooltips="1" connect="1" arrows="1" fold="1" page="1" pageScale="1" pageWidth="10" pageHeight="10" math="0" shadow="0">
      <root>
        <mxCell id="0" />
        <mxCell id="1" parent="0" />
        <mxCell id="8Ck_iy74A5BxxzvG4s4q-22" value="" style="edgeStyle=orthogonalEdgeStyle;rounded=0;orthogonalLoop=1;jettySize=auto;html=1;" parent="1" source="8Ck_iy74A5BxxzvG4s4q-23" target="8Ck_iy74A5BxxzvG4s4q-24" edge="1">
          <mxGeometry relative="1" as="geometry" />
        </mxCell>
        <mxCell id="8Ck_iy74A5BxxzvG4s4q-23" value="ID 3 Start&lt;div&gt;&lt;br&gt;&lt;/div&gt;" style="ellipse;whiteSpace=wrap;html=1;" parent="1" vertex="1">
          <mxGeometry x="345" y="140" width="120" height="80" as="geometry" />
        </mxCell>
        <mxCell id="8Ck_iy74A5BxxzvG4s4q-45" style="edgeStyle=orthogonalEdgeStyle;rounded=0;orthogonalLoop=1;jettySize=auto;html=1;exitX=0;exitY=0.25;exitDx=0;exitDy=0;entryX=0.5;entryY=1;entryDx=0;entryDy=0;" parent="1" source="8Ck_iy74A5BxxzvG4s4q-24" target="8Ck_iy74A5BxxzvG4s4q-31" edge="1">
          <mxGeometry relative="1" as="geometry" />
        </mxCell>
        <mxCell id="8Ck_iy74A5BxxzvG4s4q-24" value="Hent batteri-%" style="shape=parallelogram;perimeter=parallelogramPerimeter;whiteSpace=wrap;html=1;fixedSize=1;rounded=0;" parent="1" vertex="1">
          <mxGeometry x="300" y="250" width="210" height="60" as="geometry" />
        </mxCell>
        <mxCell id="8Ck_iy74A5BxxzvG4s4q-27" style="edgeStyle=orthogonalEdgeStyle;rounded=0;orthogonalLoop=1;jettySize=auto;html=1;entryX=0;entryY=0.75;entryDx=0;entryDy=0;exitX=0.4;exitY=0;exitDx=0;exitDy=0;exitPerimeter=0;" parent="1" target="8Ck_iy74A5BxxzvG4s4q-24" edge="1">
          <mxGeometry relative="1" as="geometry">
            <Array as="points">
              <mxPoint x="200" y="294" />
              <mxPoint x="285" y="294" />
            </Array>
            <mxPoint x="200" y="688" as="sourcePoint" />
            <mxPoint x="285.25" y="304.25" as="targetPoint" />
          </mxGeometry>
        </mxCell>
        <mxCell id="8Ck_iy74A5BxxzvG4s4q-28" value="" style="edgeStyle=orthogonalEdgeStyle;rounded=0;orthogonalLoop=1;jettySize=auto;html=1;" parent="1" source="8Ck_iy74A5BxxzvG4s4q-29" target="8Ck_iy74A5BxxzvG4s4q-36" edge="1">
          <mxGeometry relative="1" as="geometry" />
        </mxCell>
        <mxCell id="8Ck_iy74A5BxxzvG4s4q-29" value="&lt;div&gt;LMT84LPM:&lt;/div&gt;&lt;div&gt;Mål temperatur&lt;br&gt;&lt;/div&gt;" style="shape=parallelogram;perimeter=parallelogramPerimeter;whiteSpace=wrap;html=1;fixedSize=1;rounded=0;" parent="1" vertex="1">
          <mxGeometry x="300" y="450" width="210" height="60" as="geometry" />
        </mxCell>
        <mxCell id="8Ck_iy74A5BxxzvG4s4q-31" value="ID 1" style="shape=offPageConnector;whiteSpace=wrap;html=1;" parent="1" vertex="1">
          <mxGeometry x="210" y="160" width="80" height="80" as="geometry" />
        </mxCell>
        <mxCell id="8Ck_iy74A5BxxzvG4s4q-32" value="" style="edgeStyle=orthogonalEdgeStyle;rounded=0;orthogonalLoop=1;jettySize=auto;html=1;" parent="1" source="8Ck_iy74A5BxxzvG4s4q-33" target="8Ck_iy74A5BxxzvG4s4q-29" edge="1">
          <mxGeometry relative="1" as="geometry" />
        </mxCell>
        <mxCell id="8Ck_iy74A5BxxzvG4s4q-33" value="Hent GPS informationer:&lt;br&gt;(Længdegrad, breddegrad, retning)" style="shape=parallelogram;perimeter=parallelogramPerimeter;whiteSpace=wrap;html=1;fixedSize=1;" parent="1" vertex="1">
          <mxGeometry x="300" y="350" width="210" height="60" as="geometry" />
        </mxCell>
        <mxCell id="YR15I3tCYnaWCjYJKTpO-5" style="edgeStyle=orthogonalEdgeStyle;rounded=0;orthogonalLoop=1;jettySize=auto;html=1;exitX=0.5;exitY=1;exitDx=0;exitDy=0;entryX=0.5;entryY=0;entryDx=0;entryDy=0;" edge="1" parent="1" source="8Ck_iy74A5BxxzvG4s4q-36" target="YR15I3tCYnaWCjYJKTpO-4">
          <mxGeometry relative="1" as="geometry" />
        </mxCell>
        <mxCell id="8Ck_iy74A5BxxzvG4s4q-36" value="GY-512:&lt;br&gt;Mål hastighed" style="shape=parallelogram;perimeter=parallelogramPerimeter;whiteSpace=wrap;html=1;fixedSize=1;rounded=0;" parent="1" vertex="1">
          <mxGeometry x="300" y="550" width="210" height="60" as="geometry" />
        </mxCell>
        <mxCell id="8Ck_iy74A5BxxzvG4s4q-37" value="Vent 30 sekunder" style="strokeWidth=2;html=1;shape=mxgraph.flowchart.delay;whiteSpace=wrap;" parent="1" vertex="1">
          <mxGeometry x="180" y="678" width="100" height="60" as="geometry" />
        </mxCell>
        <mxCell id="8Ck_iy74A5BxxzvG4s4q-40" value="" style="edgeStyle=orthogonalEdgeStyle;rounded=0;orthogonalLoop=1;jettySize=auto;html=1;" parent="1" source="8Ck_iy74A5BxxzvG4s4q-24" target="8Ck_iy74A5BxxzvG4s4q-33" edge="1">
          <mxGeometry relative="1" as="geometry" />
        </mxCell>
        <mxCell id="YR15I3tCYnaWCjYJKTpO-4" value="Opdater ThingsBoard med data" style="shape=parallelogram;perimeter=parallelogramPerimeter;whiteSpace=wrap;html=1;fixedSize=1;rounded=0;" vertex="1" parent="1">
          <mxGeometry x="300" y="678" width="210" height="60" as="geometry" />
        </mxCell>
        <mxCell id="YR15I3tCYnaWCjYJKTpO-6" style="edgeStyle=orthogonalEdgeStyle;rounded=0;orthogonalLoop=1;jettySize=auto;html=1;exitX=0;exitY=0.5;exitDx=0;exitDy=0;entryX=1;entryY=0.5;entryDx=0;entryDy=0;entryPerimeter=0;" edge="1" parent="1" source="YR15I3tCYnaWCjYJKTpO-4" target="8Ck_iy74A5BxxzvG4s4q-37">
          <mxGeometry relative="1" as="geometry" />
        </mxCell>
      </root>
    </mxGraphModel>
  </diagram>
</mxfile>
